# xmcd CD database file
#
# Track frame offsets:
#	150
#	14475
#	29725
#	45900
#	67412
#	84150
#	100762
#	113975
#	141075
#	156600
#	173280
#	197900
#
# Disc length: 2947 seconds
#
# Revision: 0
# Processed by: cddbd v1.4PL0 Copyright (c) Steve Scherf et al.
# Submitted via: NeoAudio 9.9.9
#
DISCID=a10b810c
DTITLE=CD Gold1 Various Artists - CD Gold Compilation
DYEAR=1900
DGENRE=Jazz
TTITLE0=Simply Jessie
TTITLE1=Oh, Lori
TTITLE2=Can we still be friends
TTITLE3=How much I feel
TTITLE4=Hot rod hearts
TTITLE5=I just wanna stop
TTITLE6=Crazy love
TTITLE7=I'm not in love
TTITLE8=Steal away
TTITLE9=What a fool believes
TTITLE10=Biggest Part of me
TTITLE11=Reminiscing
EXTD=
EXTT0=
EXTT1=
EXTT2=
EXTT3=
EXTT4=
EXTT5=
EXTT6=
EXTT7=
EXTT8=
EXTT9=
EXTT10=
EXTT11=
PLAYORDER=
